<svg width="1200" height="310" viewBox="0 0 1200 310" fill="none" xmlns="http://www.w3.org/2000/svg">
<defs><linearGradient id="bg" x1="0" y1="0" x2="1200" y2="310"><stop stop-color="#0D1117"/><stop offset="1" stop-color="#12101F"/></linearGradient><linearGradient id="a"><stop stop-color="#A78BFA"/><stop offset="1" stop-color="#22D3EE"/></linearGradient><style>.s{font-family:-apple-system,BlinkMacSystemFont,'Segoe UI',sans-serif}.m{font-family:'SFMono-Regular',Consolas,monospace}</style></defs>
<rect x="1" y="1" width="1198" height="308" rx="20" fill="url(#bg)" stroke="#30363D" stroke-width="2"/>
<text x="48" y="58" class="s" font-size="25" font-weight="750" fill="#F0F6FC">Tools I build with</text><text x="48" y="87" class="s" font-size="14" fill="#8B949E">A practical stack for modern product development.</text>
<g class="s" font-size="13" fill="#C9D1D9">
<rect x="48" y="118" width="125" height="56" rx="10" fill="#161B22" stroke="#30363D"/><rect x="66" y="138" width="12" height="12" rx="3" fill="#F7DF1E"/><text x="91" y="150">JavaScript</text>
<rect x="185" y="118" width="100" height="56" rx="10" fill="#161B22" stroke="#30363D"/><rect x="203" y="138" width="12" height="12" rx="3" fill="#E34F26"/><text x="228" y="150">HTML</text>
<rect x="297" y="118" width="90" height="56" rx="10" fill="#161B22" stroke="#30363D"/><rect x="315" y="138" width="12" height="12" rx="3" fill="#1572B6"/><text x="340" y="150">CSS</text>
<rect x="399" y="118" width="130" height="56" rx="10" fill="#161B22" stroke="#30363D"/><rect x="417" y="138" width="12" height="12" rx="3" fill="#3178C6"/><text x="442" y="150">TypeScript</text>
<rect x="541" y="118" width="105" height="56" rx="10" fill="#161B22" stroke="#30363D"/><rect x="559" y="138" width="12" height="12" rx="3" fill="#61DAFB"/><text x="584" y="150">React</text>
<rect x="658" y="118" width="112" height="56" rx="10" fill="#161B22" stroke="#30363D"/><rect x="676" y="138" width="12" height="12" rx="3" fill="#68A063"/><text x="701" y="150">Node.js</text>
<rect x="782" y="118" width="106" height="56" rx="10" fill="#161B22" stroke="#30363D"/><rect x="800" y="138" width="12" height="12" rx="3" fill="#3776AB"/><text x="825" y="150">Python</text>
<rect x="900" y="118" width="136" height="56" rx="10" fill="#161B22" stroke="#30363D"/><rect x="918" y="138" width="12" height="12" rx="3" fill="#4169E1"/><text x="943" y="150">PostgreSQL</text>
<rect x="1048" y="118" width="104" height="56" rx="10" fill="#161B22" stroke="#30363D"/><rect x="1066" y="138" width="12" height="12" rx="3" fill="#2496ED"/><text x="1091" y="150">Docker</text>
<rect x="48" y="190" width="96" height="56" rx="10" fill="#161B22" stroke="#30363D"/><rect x="66" y="210" width="12" height="12" rx="3" fill="url(#a)"/><text x="91" y="222">Linux</text>
<rect x="156" y="190" width="104" height="56" rx="10" fill="#161B22" stroke="#30363D"/><rect x="174" y="210" width="12" height="12" rx="3" fill="url(#a)"/><text x="199" y="222">GitHub</text>
</g>
<text x="48" y="282" class="m" font-size="11" letter-spacing="1.5" fill="#6E7681">FRONTEND · BACKEND · DATABASES · INFRASTRUCTURE</text>
</svg>
